<?xml version="1.0" encoding="UTF-8" standalone="no"?>
<!DOCTYPE svg PUBLIC "-//W3C//DTD SVG 1.1//EN" "http://www.w3.org/Graphics/SVG/1.1/DTD/svg11.dtd">
<svg xmlns="http://www.w3.org/2000/svg" version="1.1" viewBox="0 0 800 800">
<g stroke-width="2.0" fill="none" stroke-linecap="butt">
<path stroke="#f1232e" stroke-opacity="0.988" vector-effect="non-scaling-stroke" d="
  M 528.46 445.75
  L 528.00 442.61
  Q 527.92 442.04 527.79 442.58
  Q 527.15 445.26 527.79 447.75"
/>
<path stroke="#fa3136" stroke-opacity="0.992" vector-effect="non-scaling-stroke" d="
  M 527.21 455.00
  Q 526.64 452.52 526.53 454.00
  Q 526.26 457.51 525.44 460.94
  Q 524.80 463.61 525.21 465.25"
/>
<path stroke="#fc4143" stroke-opacity="0.996" vector-effect="non-scaling-stroke" d="
  M 275.04 453.25
  Q 276.00 453.31 276.20 452.19
  Q 277.12 447.16 279.31 442.56
  Q 280.60 439.87 282.92 441.28
  Q 284.77 442.40 284.82 442.43
  Q 286.66 443.31 288.50 444.21"
/>
<path stroke="#f0706e" stroke-opacity="0.992" vector-effect="non-scaling-stroke" d="
  M 288.50 444.21
  Q 290.15 445.38 291.16 447.03
  Q 292.00 448.40 291.93 450.65
  Q 291.54 462.15 292.20 472.98
  Q 292.32 474.96 294.31 474.99
  Q 299.28 475.07 303.69 476.06
  Q 307.79 476.99 310.25 476.29"
/>
<path stroke="#f1232e" stroke-opacity="0.988" vector-effect="non-scaling-stroke" d="
  M 510.29 437.00
  Q 510.53 437.53 510.50 438.75
  Q 510.41 442.27 511.06 439.51
  Q 511.91 435.91 511.29 432.25"
/>
<path stroke="#e3383a" stroke-opacity="0.984" vector-effect="non-scaling-stroke" d="
  M 513.21 345.50
  L 513.20 338.06
  Q 513.20 337.36 512.75 337.80
  Q 512.31 338.22 512.50 339.25
  Q 512.77 340.72 512.29 343.50"
/>
<path stroke="#fa3136" stroke-opacity="0.992" vector-effect="non-scaling-stroke" d="
  M 511.21 321.75
  Q 511.38 319.68 511.27 317.60
  Q 511.26 317.32 511.30 316.89
  Q 511.47 315.46 510.29 316.75"
/>
<path stroke="#fa3136" stroke-opacity="0.992" vector-effect="non-scaling-stroke" d="
  M 509.46 305.75
  L 508.61 297.74
  Q 508.53 296.97 508.37 297.73
  L 508.04 299.25"
/>
<path stroke="#fd2527" stroke-opacity="0.996" vector-effect="non-scaling-stroke" d="
  M 507.96 295.25
  Q 508.23 285.59 504.50 276.71"
/>
<path stroke="#fc4143" stroke-opacity="0.996" vector-effect="non-scaling-stroke" d="
  M 504.50 276.71
  Q 502.66 271.54 499.30 267.20
  Q 491.44 257.05 480.68 250.07
  Q 472.89 245.02 464.75 240.54"
/>
<path stroke="#fd2527" stroke-opacity="0.996" vector-effect="non-scaling-stroke" d="
  M 464.75 240.54
  Q 457.05 236.43 449.47 232.11
  Q 446.01 230.14 439.81 225.69
  Q 437.60 224.10 436.15 222.59
  Q 434.31 220.68 432.72 219.59
  Q 429.63 217.46 427.25 214.50
  Q 426.21 213.20 425.19 211.31
  Q 423.66 208.49 421.32 206.34
  Q 421.25 206.29 420.03 204.85
  Q 418.92 203.54 416.96 204.25"
/>
<path stroke="#fa3136" stroke-opacity="0.992" vector-effect="non-scaling-stroke" d="
  M 413.75 205.79
  Q 406.90 204.42 402.44 202.31
  Q 395.65 199.10 389.25 199.00
  Q 384.44 198.92 379.95 201.89
  Q 379.14 202.43 376.30 204.28
  Q 374.35 205.56 372.71 207.25"
/>
<path stroke="#f1232e" stroke-opacity="0.988" vector-effect="non-scaling-stroke" d="
  M 372.71 207.25
  Q 365.14 212.96 357.68 218.80
  Q 352.12 223.16 346.94 226.71
  Q 341.44 230.49 335.93 234.27
  Q 335.72 234.42 335.40 234.52
  Q 334.36 234.86 335.25 235.21"
/>
<path stroke="#e3383a" stroke-opacity="0.984" vector-effect="non-scaling-stroke" d="
  M 327.50 240.29
  Q 326.64 240.32 324.69 241.69
  Q 320.79 244.42 316.99 247.31
  Q 316.82 247.45 316.46 247.59
  Q 315.86 247.82 316.25 248.25"
/>
<path stroke="#e3383a" stroke-opacity="0.984" vector-effect="non-scaling-stroke" d="
  M 316.25 248.25
  Q 312.86 249.43 311.04 252.50"
/>
<path stroke="#fa666b" stroke-opacity="0.992" vector-effect="non-scaling-stroke" d="
  M 464.75 240.54
  Q 464.93 241.32 464.25 241.29"
/>
<path stroke="#fa666b" stroke-opacity="0.992" vector-effect="non-scaling-stroke" d="
  M 504.50 276.71
  L 504.00 277.04"
/>
<path stroke="#fd2527" stroke-opacity="0.996" vector-effect="non-scaling-stroke" d="
  M 416.50 251.79
  L 417.25 251.85
  C 417.66 251.88 417.99 251.97 418.12 252.09
  Q 421.59 255.15 425.97 256.65
  C 426.24 256.75 426.49 256.96 426.68 257.26
  Q 427.34 258.27 428.75 258.75
  Q 432.25 259.94 437.51 259.40
  C 437.96 259.35 438.27 258.91 438.14 258.47
  Q 437.87 257.55 437.29 256.45
  Q 436.75 255.44 436.48 254.44
  Q 435.07 249.33 432.00 245.50
  Q 427.95 240.45 422.00 235.76
  Q 412.10 227.96 401.31 221.44
  Q 399.78 220.51 397.16 215.27
  C 397.00 214.95 396.78 214.70 396.51 214.55
  Q 394.25 213.25 391.98 214.27
  Q 389.44 215.42 389.39 215.44
  Q 381.59 218.05 374.91 222.88
  Q 374.71 223.03 374.55 223.02
  Q 374.29 223.00 374.21 222.75"
/>
<path stroke="#fd2527" stroke-opacity="0.996" vector-effect="non-scaling-stroke" d="
  M 404.75 240.96
  Q 404.22 238.42 401.75 239.04"
/>
<path stroke="#f4504e" stroke-opacity="0.988" vector-effect="non-scaling-stroke" d="
  M 398.21 236.25
  Q 398.32 235.36 397.31 234.69
  Q 395.19 233.27 391.55 232.12
  C 390.75 231.87 389.88 232.05 389.24 232.59
  Q 384.96 236.22 380.66 240.36
  Q 380.57 240.45 379.25 241.54
  Q 377.49 243.00 378.38 244.59
  Q 378.90 245.52 380.84 246.59
  Q 390.73 252.07 400.75 257.29"
/>
<path stroke="#fa3136" stroke-opacity="0.992" vector-effect="non-scaling-stroke" d="
  M 400.75 257.29
  Q 408.78 261.98 416.44 267.23
  Q 419.20 269.12 421.99 271.92
  Q 424.56 274.50 427.21 277.00"
/>
<path stroke="#ff0f10" vector-effect="non-scaling-stroke" d="
  M 427.21 277.00
  Q 430.54 281.64 430.50 285.50
  Q 430.46 288.98 430.86 292.43
  Q 431.22 295.57 428.95 297.50
  C 428.66 297.75 428.47 298.03 428.44 298.29
  L 427.79 303.00"
/>
<path stroke="#fd2527" stroke-opacity="0.996" vector-effect="non-scaling-stroke" d="
  M 427.71 303.25
  Q 426.99 303.56 426.25 303.68
  Q 425.65 303.77 424.79 303.47
  Q 422.61 302.71 420.25 303.04"
/>
<path stroke="#f4504e" stroke-opacity="0.988" vector-effect="non-scaling-stroke" d="
  M 397.00 272.71
  Q 396.69 271.94 395.56 271.44
  Q 388.98 268.48 383.50 267.29"
/>
<path stroke="#fa4047" stroke-opacity="0.992" vector-effect="non-scaling-stroke" d="
  M 427.29 276.00
  L 427.21 277.00"
/>
<path stroke="#fd2527" stroke-opacity="0.996" vector-effect="non-scaling-stroke" d="
  M 292.79 315.50
  L 293.17 322.44
  Q 293.19 322.93 293.24 322.44
  Q 293.86 316.60 293.29 310.75"
/>
<path stroke="#fc4143" stroke-opacity="0.996" vector-effect="non-scaling-stroke" d="
  M 461.21 274.50
  Q 460.88 274.72 460.82 275.10
  Q 460.77 275.38 460.99 275.72
  Q 466.00 283.43 474.38 287.03
  Q 474.46 287.07 476.84 288.38
  Q 478.42 289.25 480.29 289.00"
/>
<path stroke="#e3383a" stroke-opacity="0.984" vector-effect="non-scaling-stroke" d="
  M 500.04 381.75
  Q 498.94 385.20 499.96 388.62
  Q 500.05 388.90 500.14 388.61
  Q 500.34 387.98 500.71 388.75"
/>
<path stroke="#fa3136" stroke-opacity="0.992" vector-effect="non-scaling-stroke" d="
  M 500.71 438.00
  Q 498.94 445.90 496.94 453.74
  Q 496.79 454.34 495.67 457.55
  Q 495.00 459.46 494.79 461.50"
/>
<path stroke="#fa3136" stroke-opacity="0.992" vector-effect="non-scaling-stroke" d="
  M 485.79 431.25
  L 486.18 433.46
  Q 486.29 434.12 486.37 433.45
  Q 487.62 422.80 485.79 412.25"
/>
<path stroke="#f1232e" stroke-opacity="0.988" vector-effect="non-scaling-stroke" d="
  M 464.75 353.79
  Q 459.14 356.47 453.00 357.29"
/>
<path stroke="#fc4143" stroke-opacity="0.996" vector-effect="non-scaling-stroke" d="
  M 453.00 357.29
  L 449.28 356.01
  C 448.66 355.79 448.25 355.16 448.25 354.44
  Q 448.27 346.74 448.01 338.50
  Q 448.00 338.17 447.84 338.05
  Q 447.64 337.89 447.29 338.00"
/>
<path stroke="#fd2527" stroke-opacity="0.996" vector-effect="non-scaling-stroke" d="
  M 421.50 308.21
  Q 421.38 309.12 422.19 309.28
  Q 422.81 309.40 423.11 309.56
  Q 425.07 310.59 427.00 309.46"
/>
<path stroke="#ff0f10" vector-effect="non-scaling-stroke" d="
  M 434.00 312.96
  L 430.56 311.56
  C 430.19 311.41 429.88 311.33 429.75 311.36
  Q 429.47 311.43 429.33 311.59
  Q 428.95 312.01 429.68 312.13
  Q 433.62 312.79 431.50 316.50
  Q 430.55 318.15 427.40 319.50
  C 427.04 319.65 426.78 319.87 426.68 320.10
  L 426.31 320.96
  C 426.19 321.25 425.94 321.44 425.69 321.43
  Q 408.84 321.34 392.00 321.75
  Q 386.11 321.89 383.00 322.79"
/>
<path stroke="#f1232e" stroke-opacity="0.988" vector-effect="non-scaling-stroke" d="
  M 383.00 322.79
  Q 377.39 323.88 374.56 328.63
  C 374.40 328.90 374.38 329.24 374.52 329.52
  L 375.00 330.50"
/>
<path stroke="#fc4143" stroke-opacity="0.996" vector-effect="non-scaling-stroke" d="
  M 375.00 330.50
  Q 373.60 331.08 375.09 331.62
  Q 385.90 335.57 397.25 337.54"
/>
<path stroke="#fd2527" stroke-opacity="0.996" vector-effect="non-scaling-stroke" d="
  M 397.25 337.54
  Q 402.54 339.55 408.25 339.54"
/>
<path stroke="#fc4143" stroke-opacity="0.996" vector-effect="non-scaling-stroke" d="
  M 408.25 339.54
  Q 409.86 340.36 411.00 340.50
  Q 419.21 341.48 427.09 343.96
  Q 428.89 344.52 430.61 345.53
  Q 433.15 347.00 433.94 347.56
  Q 437.44 350.05 437.63 354.04
  Q 437.84 358.34 437.86 358.46
  Q 438.40 361.56 439.14 364.63
  Q 439.20 364.86 439.33 364.94
  Q 439.50 365.05 439.71 365.00"
/>
<path stroke="#f1232e" stroke-opacity="0.988" vector-effect="non-scaling-stroke" d="
  M 389.75 421.96
  Q 390.70 422.22 391.50 421.74
  Q 396.56 418.70 401.66 415.74
  Q 402.65 415.17 401.75 414.79"
/>
<path stroke="#e3383a" stroke-opacity="0.984" vector-effect="non-scaling-stroke" d="
  M 402.00 414.71
  Q 403.05 414.68 404.75 413.50
  Q 410.70 409.35 412.10 408.24
  Q 412.11 408.23 412.58 407.97
  Q 412.98 407.74 412.46 407.25"
/>
<path stroke="#e3383a" stroke-opacity="0.984" vector-effect="non-scaling-stroke" d="
  M 383.00 349.71
  Q 383.46 349.20 382.78 349.18
  Q 382.54 349.18 382.35 349.10
  Q 378.81 347.73 375.00 347.79"
/>
<path stroke="#fd2527" stroke-opacity="0.996" vector-effect="non-scaling-stroke" d="
  M 387.00 307.79
  Q 390.61 308.53 393.97 307.25
  Q 394.49 307.05 393.94 307.03
  L 392.50 306.96"
/>
<path stroke="#f1323f" stroke-opacity="0.988" vector-effect="non-scaling-stroke" d="
  M 385.00 323.04
  Q 383.95 323.13 383.00 322.79"
/>
<path stroke="#fa666b" stroke-opacity="0.992" vector-effect="non-scaling-stroke" d="
  M 409.50 339.21
  Q 408.79 339.14 408.25 339.54"
/>
<path stroke="#fa666b" stroke-opacity="0.992" vector-effect="non-scaling-stroke" d="
  M 398.75 337.21
  L 397.25 337.54"
/>
<path stroke="#f4504e" stroke-opacity="0.988" vector-effect="non-scaling-stroke" d="
  M 515.75 538.04
  Q 513.04 538.27 514.51 538.41
  Q 519.88 538.92 525.27 539.05
  Q 525.71 539.06 526.04 539.27
  Q 526.39 539.49 526.71 539.75"
/>
<path stroke="#f0706e" stroke-opacity="0.992" vector-effect="non-scaling-stroke" d="
  M 526.71 539.75
  Q 526.73 541.14 526.41 542.47
  Q 526.00 544.12 525.99 545.11
  Q 525.89 557.53 525.83 569.96
  Q 525.83 570.02 526.02 579.91
  Q 526.12 585.21 525.71 590.50"
/>
<path stroke="#f0706e" stroke-opacity="0.992" vector-effect="non-scaling-stroke" d="
  M 525.71 590.50
  Q 524.95 595.51 524.50 605.25
  Q 524.27 610.31 522.74 617.85
  Q 522.63 618.38 522.61 620.17
  Q 522.60 621.45 521.97 622.52
  C 521.82 622.78 521.52 622.94 521.19 622.94
  L 483.75 623.29"
/>
<path stroke="#f4504e" stroke-opacity="0.988" vector-effect="non-scaling-stroke" d="
  M 483.75 623.29
  L 475.00 623.71"
/>
<path stroke="#fd2527" stroke-opacity="0.996" vector-effect="non-scaling-stroke" d="
  M 369.81 479.58
  Q 377.02 479.89 384.25 479.82
  Q 386.87 479.79 385.24 479.73
  Q 377.53 479.46 369.81 479.56
  Q 369.30 479.56 369.81 479.58"
/>
<path stroke="#ff0000" vector-effect="non-scaling-stroke" d="
  M 419.56 294.13
  Q 421.38 295.17 423.10 294.04
  C 423.36 293.87 423.56 293.60 423.64 293.28
  Q 424.49 290.13 422.75 286.53
  Q 422.34 285.70 421.84 286.53
  L 418.93 291.29
  Q 417.81 293.13 419.56 294.13"
/>
<path stroke="#fd2527" stroke-opacity="0.996" vector-effect="non-scaling-stroke" d="
  M 461.46 330.25
  Q 461.03 330.17 461.09 330.48
  Q 462.06 336.03 464.32 341.19
  C 464.66 341.99 465.38 342.57 466.24 342.75
  Q 476.03 344.75 483.81 338.56
  Q 485.42 337.29 486.26 336.04
  Q 487.07 334.83 486.63 332.82
  Q 485.44 327.27 484.38 321.69
  Q 484.31 321.32 484.39 320.30
  Q 484.48 319.05 483.04 319.25"
/>
<path stroke="#fc4143" stroke-opacity="0.996" vector-effect="non-scaling-stroke" d="
  M 482.21 316.75
  L 479.28 303.12
  Q 478.75 300.61 476.01 301.00
  Q 473.86 301.31 472.33 300.14
  Q 471.00 299.14 470.94 299.10
  Q 468.85 297.79 467.95 297.14
  Q 465.46 295.37 462.42 295.68
  Q 458.38 296.10 458.62 299.35
  Q 458.74 301.04 458.74 301.15
  Q 458.61 310.85 459.48 320.50
  Q 459.51 320.83 459.66 320.95
  Q 459.86 321.11 460.21 321.00"
/>
<path stroke="#f4504e" stroke-opacity="0.988" vector-effect="non-scaling-stroke" d="
  M 377.29 576.00
  Q 377.15 575.19 376.83 575.84
  Q 376.75 575.98 376.73 576.18
  Q 375.78 585.30 376.52 594.44
  C 376.54 594.67 376.72 594.94 377.00 595.17
  Q 377.35 595.46 377.46 596.00"
/>
<path stroke="#e3383a" stroke-opacity="0.984" vector-effect="non-scaling-stroke" d="
  M 511.00 598.21
  Q 512.76 597.77 511.25 597.73
  Q 495.88 597.30 480.50 597.54"
/>
<path stroke="#ff0f10" vector-effect="non-scaling-stroke" d="
  M 311.29 563.81
  Q 311.21 566.56 311.25 569.57
  Q 311.31 572.89 311.47 569.57
  Q 311.63 566.44 311.36 563.80
  Q 311.31 563.27 311.29 563.81"
/>
<path stroke="#f4504e" stroke-opacity="0.988" vector-effect="non-scaling-stroke" d="
  M 407.25 559.21
  L 394.50 559.46"
/>
</g>
<path fill="#ff0000" d="
  M 528.46 445.75
  L 528.00 442.61
  Q 527.92 442.04 527.79 442.58
  Q 527.15 445.26 527.79 447.75
  L 527.21 455.00
  Q 526.64 452.52 526.53 454.00
  Q 526.26 457.51 525.44 460.94
  Q 524.80 463.61 525.21 465.25
  Q 523.52 472.73 519.31 483.31
  Q 517.13 488.81 513.19 491.69
  Q 508.78 494.91 500.78 495.98
  Q 486.33 497.92 471.75 498.00
  Q 464.68 498.04 432.78 496.23
  Q 429.40 496.04 424.78 495.28
  Q 419.60 494.42 416.75 494.50
  Q 410.62 494.66 404.50 494.25
  Q 399.26 493.90 389.75 496.00
  Q 387.36 496.53 380.70 496.27
  Q 378.60 496.19 377.27 495.12
  Q 376.27 494.31 375.45 493.32
  Q 374.25 491.88 373.66 491.56
  Q 371.52 490.42 368.82 492.17
  Q 367.72 492.89 366.42 493.08
  Q 362.22 493.71 358.21 495.23
  Q 355.45 496.27 353.08 496.37
  Q 333.37 497.19 309.50 496.50
  Q 302.35 496.29 296.25 495.14
  Q 292.24 494.38 288.16 494.13
  Q 281.94 493.74 276.37 492.17
  Q 274.55 491.65 274.71 489.76
  Q 275.00 486.28 273.91 483.53
  Q 272.91 481.02 272.73 478.37
  Q 272.67 477.46 272.71 473.12
  Q 272.75 467.50 274.00 462.00
  Q 274.43 460.09 275.04 453.25
  Q 276.00 453.31 276.20 452.19
  Q 277.12 447.16 279.31 442.56
  Q 280.60 439.87 282.92 441.28
  Q 284.77 442.40 284.82 442.43
  Q 286.66 443.31 288.50 444.21
  Q 290.15 445.38 291.16 447.03
  Q 292.00 448.40 291.93 450.65
  Q 291.54 462.15 292.20 472.98
  Q 292.32 474.96 294.31 474.99
  Q 299.28 475.07 303.69 476.06
  Q 307.79 476.99 310.25 476.29
  Q 335.57 478.64 350.75 479.00
  Q 384.62 479.80 413.25 478.25
  Q 429.89 477.35 435.25 477.30
  Q 454.02 477.13 472.74 475.92
  Q 487.98 474.93 502.74 474.76
  C 503.62 474.75 504.39 474.14 504.60 473.29
  Q 509.11 455.22 510.29 437.00
  Q 510.53 437.53 510.50 438.75
  Q 510.41 442.27 511.06 439.51
  Q 511.91 435.91 511.29 432.25
  Q 513.46 413.25 513.75 386.25
  Q 514.03 360.39 513.21 345.50
  L 513.20 338.06
  Q 513.20 337.36 512.75 337.80
  Q 512.31 338.22 512.50 339.25
  Q 512.77 340.72 512.29 343.50
  Q 512.30 332.60 511.21 321.75
  Q 511.38 319.68 511.27 317.60
  Q 511.26 317.32 511.30 316.89
  Q 511.47 315.46 510.29 316.75
  L 509.46 305.75
  L 508.61 297.74
  Q 508.53 296.97 508.37 297.73
  L 508.04 299.25
  L 507.96 295.25
  Q 508.23 285.59 504.50 276.71
  Q 502.66 271.54 499.30 267.20
  Q 491.44 257.05 480.68 250.07
  Q 472.89 245.02 464.75 240.54
  Q 457.05 236.43 449.47 232.11
  Q 446.01 230.14 439.81 225.69
  Q 437.60 224.10 436.15 222.59
  Q 434.31 220.68 432.72 219.59
  Q 429.63 217.46 427.25 214.50
  Q 426.21 213.20 425.19 211.31
  Q 423.66 208.49 421.32 206.34
  Q 421.25 206.29 420.03 204.85
  Q 418.92 203.54 416.96 204.25
  L 413.75 205.79
  Q 406.90 204.42 402.44 202.31
  Q 395.65 199.10 389.25 199.00
  Q 384.44 198.92 379.95 201.89
  Q 379.14 202.43 376.30 204.28
  Q 374.35 205.56 372.71 207.25
  Q 365.14 212.96 357.68 218.80
  Q 352.12 223.16 346.94 226.71
  Q 341.44 230.49 335.93 234.27
  Q 335.72 234.42 335.40 234.52
  Q 334.36 234.86 335.25 235.21
  L 327.50 240.29
  Q 326.64 240.32 324.69 241.69
  Q 320.79 244.42 316.99 247.31
  Q 316.82 247.45 316.46 247.59
  Q 315.86 247.82 316.25 248.25
  Q 312.86 249.43 311.04 252.50
  Q 306.01 256.48 300.81 262.81
  Q 290.30 275.62 289.29 292.25
  Q 289.11 295.11 288.71 297.94
  Q 288.22 301.33 288.14 303.59
  Q 287.52 319.29 287.25 335.00
  Q 286.92 353.42 288.38 371.78
  Q 288.39 371.92 288.41 374.72
  Q 288.42 376.32 288.91 377.81
  Q 289.51 379.64 289.55 380.79
  Q 289.83 387.47 290.94 394.06
  Q 291.10 395.03 290.88 396.99
  Q 290.80 397.69 290.60 399.89
  Q 289.77 409.00 281.86 412.63
  Q 279.67 413.63 278.16 411.76
  Q 275.71 408.71 274.16 405.51
  Q 273.00 403.12 272.98 399.75
  Q 272.87 380.00 273.11 360.26
  Q 273.23 349.80 272.76 340.27
  Q 271.84 321.77 270.84 303.27
  Q 270.47 296.36 271.04 290.74
  Q 271.68 284.48 272.71 278.28
  Q 273.89 271.12 275.93 267.05
  Q 278.59 261.73 283.00 257.50
  Q 288.63 252.10 294.74 247.23
  Q 339.68 211.41 386.72 177.52
  Q 388.09 176.54 389.57 177.32
  Q 420.41 193.74 450.84 211.48
  Q 473.22 224.54 494.02 240.00
  Q 500.61 244.91 513.81 256.44
  Q 516.46 258.75 516.82 261.44
  Q 520.22 287.29 523.85 313.11
  Q 524.24 315.93 524.80 322.44
  Q 525.06 325.56 525.51 328.67
  Q 526.10 332.79 526.29 334.88
  Q 528.15 355.43 528.27 376.05
  Q 528.35 390.83 528.35 390.95
  Q 528.67 418.35 528.46 445.75
  Z
  M 369.81 479.58
  Q 377.02 479.89 384.25 479.82
  Q 386.87 479.79 385.24 479.73
  Q 377.53 479.46 369.81 479.56
  Q 369.30 479.56 369.81 479.58
  Z"
/>
<path fill="#f5636d" fill-opacity="0.984" d="
  M 413.75 205.79
  Q 411.75 206.32 409.74 205.77
  Q 403.80 204.14 398.17 201.60
  Q 390.68 198.21 383.06 201.31
  Q 380.07 202.53 373.25 207.54
  Q 372.83 207.57 372.71 207.25
  Q 374.35 205.56 376.30 204.28
  Q 379.14 202.43 379.95 201.89
  Q 384.44 198.92 389.25 199.00
  Q 395.65 199.10 402.44 202.31
  Q 406.90 204.42 413.75 205.79
  Z"
/>
<path fill="#fb4a4f" fill-opacity="0.992" d="
  M 464.75 240.54
  Q 464.93 241.32 464.25 241.29
  Q 456.33 237.12 448.54 232.74
  Q 436.44 225.94 426.69 216.06
  Q 424.39 213.74 420.19 206.56
  Q 419.64 205.62 416.96 204.25
  Q 418.92 203.54 420.03 204.85
  Q 421.25 206.29 421.32 206.34
  Q 423.66 208.49 425.19 211.31
  Q 426.21 213.20 427.25 214.50
  Q 429.63 217.46 432.72 219.59
  Q 434.31 220.68 436.15 222.59
  Q 437.60 224.10 439.81 225.69
  Q 446.01 230.14 449.47 232.11
  Q 457.05 236.43 464.75 240.54
  Z"
/>
<path fill="#e3475d" fill-opacity="0.976" d="
  M 372.71 207.25
  Q 372.83 207.57 373.25 207.54
  Q 355.38 222.92 335.25 235.21
  Q 334.36 234.86 335.40 234.52
  Q 335.72 234.42 335.93 234.27
  Q 341.44 230.49 346.94 226.71
  Q 352.12 223.16 357.68 218.80
  Q 365.14 212.96 372.71 207.25
  Z"
/>
<path fill="#fb4a4f" fill-opacity="0.992" d="
  M 416.50 251.79
  L 417.25 251.85
  C 417.66 251.88 417.99 251.97 418.12 252.09
  Q 421.59 255.15 425.97 256.65
  C 426.24 256.75 426.49 256.96 426.68 257.26
  Q 427.34 258.27 428.75 258.75
  Q 432.25 259.94 437.51 259.40
  C 437.96 259.35 438.27 258.91 438.14 258.47
  Q 437.87 257.55 437.29 256.45
  Q 436.75 255.44 436.48 254.44
  Q 435.07 249.33 432.00 245.50
  Q 427.95 240.45 422.00 235.76
  Q 412.10 227.96 401.31 221.44
  Q 399.78 220.51 397.16 215.27
  C 397.00 214.95 396.78 214.70 396.51 214.55
  Q 394.25 213.25 391.98 214.27
  Q 389.44 215.42 389.39 215.44
  Q 381.59 218.05 374.91 222.88
  Q 374.71 223.03 374.55 223.02
  Q 374.29 223.00 374.21 222.75
  Q 381.83 216.96 392.44 213.44
  Q 394.79 212.66 396.46 213.43
  Q 397.39 213.86 398.80 216.21
  Q 401.21 220.22 406.31 223.44
  Q 417.02 230.18 426.79 238.21
  Q 436.05 245.82 439.52 259.19
  Q 440.02 261.13 438.03 261.24
  Q 429.76 261.70 422.73 256.53
  Q 421.54 255.65 419.53 254.27
  Q 417.92 253.16 416.50 251.79
  Z"
/>
<path fill="#ff0000" d="
  M 416.50 251.79
  L 404.75 240.96
  Q 404.22 238.42 401.75 239.04
  L 398.21 236.25
  Q 398.32 235.36 397.31 234.69
  Q 395.19 233.27 391.55 232.12
  C 390.75 231.87 389.88 232.05 389.24 232.59
  Q 384.96 236.22 380.66 240.36
  Q 380.57 240.45 379.25 241.54
  Q 377.49 243.00 378.38 244.59
  Q 378.90 245.52 380.84 246.59
  Q 390.73 252.07 400.75 257.29
  Q 408.78 261.98 416.44 267.23
  Q 419.20 269.12 421.99 271.92
  Q 424.56 274.50 427.21 277.00
  Q 430.54 281.64 430.50 285.50
  Q 430.46 288.98 430.86 292.43
  Q 431.22 295.57 428.95 297.50
  C 428.66 297.75 428.47 298.03 428.44 298.29
  L 427.79 303.00
  L 427.71 303.25
  Q 426.99 303.56 426.25 303.68
  Q 425.65 303.77 424.79 303.47
  Q 422.61 302.71 420.25 303.04
  Q 409.20 300.76 400.25 301.00
  Q 383.99 301.44 367.75 302.23
  Q 364.24 302.40 360.73 302.00
  Q 358.63 301.75 359.02 299.67
  Q 361.29 287.48 373.94 287.08
  Q 396.25 286.38 401.75 287.25
  Q 405.25 287.80 408.75 287.25
  Q 411.87 286.75 410.94 285.06
  Q 406.17 276.46 397.00 272.71
  Q 396.69 271.94 395.56 271.44
  Q 388.98 268.48 383.50 267.29
  Q 376.60 265.12 370.39 261.56
  Q 364.91 258.42 362.46 254.49
  Q 357.04 245.79 362.75 235.50
  Q 366.82 228.16 374.21 222.75
  Q 374.29 223.00 374.55 223.02
  Q 374.71 223.03 374.91 222.88
  Q 381.59 218.05 389.39 215.44
  Q 389.44 215.42 391.98 214.27
  Q 394.25 213.25 396.51 214.55
  C 396.78 214.70 397.00 214.95 397.16 215.27
  Q 399.78 220.51 401.31 221.44
  Q 412.10 227.96 422.00 235.76
  Q 427.95 240.45 432.00 245.50
  Q 435.07 249.33 436.48 254.44
  Q 436.75 255.44 437.29 256.45
  Q 437.87 257.55 438.14 258.47
  C 438.27 258.91 437.96 259.35 437.51 259.40
  Q 432.25 259.94 428.75 258.75
  Q 427.34 258.27 426.68 257.26
  C 426.49 256.96 426.24 256.75 425.97 256.65
  Q 421.59 255.15 418.12 252.09
  C 417.99 251.97 417.66 251.88 417.25 251.85
  L 416.50 251.79
  Z
  M 419.56 294.13
  Q 421.38 295.17 423.10 294.04
  C 423.36 293.87 423.56 293.60 423.64 293.28
  Q 424.49 290.13 422.75 286.53
  Q 422.34 285.70 421.84 286.53
  L 418.93 291.29
  Q 417.81 293.13 419.56 294.13
  Z"
/>
<path fill="#e9a29e" fill-opacity="0.976" d="
  M 398.21 236.25
  L 391.93 233.06
  Q 390.36 232.26 389.14 233.48
  Q 385.28 237.36 380.90 240.94
  Q 379.35 242.20 379.09 242.99
  Q 378.56 244.61 380.94 245.81
  Q 384.73 247.72 401.29 257.00
  Q 401.12 257.34 400.75 257.29
  Q 390.73 252.07 380.84 246.59
  Q 378.90 245.52 378.38 244.59
  Q 377.49 243.00 379.25 241.54
  Q 380.57 240.45 380.66 240.36
  Q 384.96 236.22 389.24 232.59
  C 389.88 232.05 390.75 231.87 391.55 232.12
  Q 395.19 233.27 397.31 234.69
  Q 398.32 235.36 398.21 236.25
  Z"
/>
<path fill="#fb4a4f" fill-opacity="0.992" d="
  M 404.75 240.96
  Q 402.99 240.43 401.75 239.04
  Q 404.22 238.42 404.75 240.96
  Z"
/>
<path fill="#c77175" fill-opacity="0.969" d="
  M 327.50 240.29
  L 316.25 248.25
  Q 315.86 247.82 316.46 247.59
  Q 316.82 247.45 316.99 247.31
  Q 320.79 244.42 324.69 241.69
  Q 326.64 240.32 327.50 240.29
  Z"
/>
<path fill="#f88287" fill-opacity="0.988" d="
  M 464.75 240.54
  Q 472.89 245.02 480.68 250.07
  Q 491.44 257.05 499.30 267.20
  Q 502.66 271.54 504.50 276.71
  L 504.00 277.04
  Q 501.19 270.43 496.48 265.02
  Q 487.93 255.21 480.31 250.69
  Q 472.31 245.94 464.25 241.29
  Q 464.93 241.32 464.75 240.54
  Z"
/>
<path fill="#c77175" fill-opacity="0.969" d="
  M 316.25 248.25
  L 311.04 252.50
  Q 312.86 249.43 316.25 248.25
  Z"
/>
<path fill="#ff0000" d="
  M 292.79 315.50
  L 293.17 322.44
  Q 293.19 322.93 293.24 322.44
  Q 293.86 316.60 293.29 310.75
  Q 293.98 301.01 294.30 291.25
  Q 294.54 283.78 299.67 278.42
  Q 302.63 275.33 306.13 272.86
  Q 315.58 266.19 325.06 259.56
  Q 327.17 258.09 332.66 252.50
  Q 333.99 251.13 335.36 250.69
  Q 337.17 250.11 338.69 250.31
  Q 342.33 250.80 345.96 251.00
  C 346.58 251.03 347.06 251.56 347.04 252.18
  Q 346.74 259.13 344.15 264.89
  Q 341.68 270.40 336.37 274.92
  Q 330.89 279.59 324.19 282.19
  Q 318.20 284.50 314.14 286.47
  C 313.84 286.61 313.60 286.85 313.46 287.14
  Q 311.41 291.19 310.96 295.75
  Q 310.11 304.36 309.74 313.01
  Q 308.99 330.35 308.25 336.25
  Q 307.16 344.96 305.44 349.44
  Q 304.61 351.59 304.46 353.46
  Q 304.35 354.80 305.25 357.40
  Q 305.94 359.37 306.28 361.44
  Q 307.25 367.35 307.92 373.30
  Q 308.54 378.86 308.56 385.23
  Q 308.62 400.76 307.70 416.86
  C 307.67 417.41 308.01 417.92 308.53 418.10
  Q 327.12 424.61 341.50 438.75
  Q 347.11 444.26 348.96 449.89
  Q 351.84 458.67 347.69 465.69
  Q 345.68 469.08 341.91 469.30
  Q 338.66 469.49 335.94 467.53
  Q 332.52 465.06 331.75 460.25
  Q 330.66 453.47 328.27 446.27
  Q 327.61 444.27 326.25 443.50
  Q 325.17 442.89 323.91 442.68
  Q 321.84 442.32 321.50 442.22
  Q 307.39 438.13 297.56 432.19
  Q 295.77 431.10 295.78 428.75
  Q 295.80 425.32 295.79 425.26
  Q 294.19 411.44 294.00 402.50
  Q 293.44 375.69 292.50 363.50
  Q 291.10 345.37 291.75 339.75
  Q 292.75 331.15 292.53 322.50
  Q 292.44 318.99 292.79 315.50
  Z"
/>
<path fill="#ff0000" d="
  M 461.21 274.50
  Q 460.88 274.72 460.82 275.10
  Q 460.77 275.38 460.99 275.72
  Q 466.00 283.43 474.38 287.03
  Q 474.46 287.07 476.84 288.38
  Q 478.42 289.25 480.29 289.00
  Q 488.18 292.04 494.21 297.82
  Q 495.85 299.40 496.38 301.30
  Q 496.94 303.34 496.95 305.50
  Q 497.00 323.50 497.04 341.50
  Q 497.05 346.93 497.37 352.34
  Q 497.47 354.16 498.44 363.12
  Q 499.10 369.29 499.21 375.50
  Q 499.27 378.68 500.04 381.75
  Q 498.94 385.20 499.96 388.62
  Q 500.05 388.90 500.14 388.61
  Q 500.34 387.98 500.71 388.75
  Q 500.62 400.25 501.07 411.75
  Q 501.59 424.88 500.71 438.00
  Q 498.94 445.90 496.94 453.74
  Q 496.79 454.34 495.67 457.55
  Q 495.00 459.46 494.79 461.50
  Q 494.08 463.83 492.25 463.50
  Q 486.41 462.44 484.70 457.56
  Q 483.85 455.12 484.34 448.88
  Q 485.04 440.06 485.79 431.25
  L 486.18 433.46
  Q 486.29 434.12 486.37 433.45
  Q 487.62 422.80 485.79 412.25
  Q 485.50 406.32 485.02 400.40
  Q 484.53 394.27 484.57 388.56
  Q 484.73 369.17 483.75 355.50
  Q 483.58 353.19 481.68 352.03
  Q 480.70 351.44 478.19 350.60
  Q 472.96 348.84 468.13 351.78
  Q 467.50 352.16 466.41 352.73
  Q 465.53 353.18 464.75 353.79
  Q 459.14 356.47 453.00 357.29
  L 449.28 356.01
  C 448.66 355.79 448.25 355.16 448.25 354.44
  Q 448.27 346.74 448.01 338.50
  Q 448.00 338.17 447.84 338.05
  Q 447.64 337.89 447.29 338.00
  Q 447.00 336.79 447.00 334.25
  Q 447.00 294.25 447.00 253.74
  C 447.00 253.39 447.25 253.09 447.60 253.03
  Q 449.59 252.67 451.51 252.80
  Q 453.47 252.94 455.16 253.98
  Q 458.09 255.80 459.82 258.75
  Q 460.99 260.73 460.99 264.02
  Q 461.00 269.26 461.21 274.50
  Z
  M 460.21 321.00
  L 461.46 330.25
  Q 461.03 330.17 461.09 330.48
  Q 462.06 336.03 464.32 341.19
  C 464.66 341.99 465.38 342.57 466.24 342.75
  Q 476.03 344.75 483.81 338.56
  Q 485.42 337.29 486.26 336.04
  Q 487.07 334.83 486.63 332.82
  Q 485.44 327.27 484.38 321.69
  Q 484.31 321.32 484.39 320.30
  Q 484.48 319.05 483.04 319.25
  L 482.21 316.75
  L 479.28 303.12
  Q 478.75 300.61 476.01 301.00
  Q 473.86 301.31 472.33 300.14
  Q 471.00 299.14 470.94 299.10
  Q 468.85 297.79 467.95 297.14
  Q 465.46 295.37 462.42 295.68
  Q 458.38 296.10 458.62 299.35
  Q 458.74 301.04 458.74 301.15
  Q 458.61 310.85 459.48 320.50
  Q 459.51 320.83 459.66 320.95
  Q 459.86 321.11 460.21 321.00
  Z"
/>
<path fill="#f5636d" fill-opacity="0.984" d="
  M 401.29 257.00
  Q 416.22 263.92 427.29 276.00
  L 427.21 277.00
  Q 424.56 274.50 421.99 271.92
  Q 419.20 269.12 416.44 267.23
  Q 408.78 261.98 400.75 257.29
  Q 401.12 257.34 401.29 257.00
  Z"
/>
<path fill="#e9a29e" fill-opacity="0.976" d="
  M 383.50 267.29
  Q 388.98 268.48 395.56 271.44
  Q 396.69 271.94 397.00 272.71
  L 383.50 267.29
  Z"
/>
<path fill="#f88287" fill-opacity="0.988" d="
  M 461.21 274.50
  Q 462.73 276.35 464.16 278.27
  Q 465.74 280.38 467.45 281.67
  Q 473.38 286.13 480.29 289.00
  Q 478.42 289.25 476.84 288.38
  Q 474.46 287.07 474.38 287.03
  Q 466.00 283.43 460.99 275.72
  Q 460.77 275.38 460.82 275.10
  Q 460.88 274.72 461.21 274.50
  Z"
/>
<path fill="#fe1e21" fill-opacity="0.996" d="
  M 427.29 276.00
  Q 434.83 284.86 431.36 295.79
  Q 430.93 297.18 429.64 299.40
  Q 428.63 301.15 427.79 303.00
  L 428.44 298.29
  C 428.47 298.03 428.66 297.75 428.95 297.50
  Q 431.22 295.57 430.86 292.43
  Q 430.46 288.98 430.50 285.50
  Q 430.54 281.64 427.21 277.00
  L 427.29 276.00
  Z"
/>
<path fill="#fb4a4f" fill-opacity="0.992" d="
  M 504.50 276.71
  Q 508.23 285.59 507.96 295.25
  Q 507.43 292.41 506.85 289.58
  Q 506.81 289.39 505.93 283.87
  Q 505.37 280.37 504.00 277.04
  L 504.50 276.71
  Z"
/>
<path fill="#ff0000" d="
  M 419.56 294.13
  Q 417.81 293.13 418.93 291.29
  L 421.84 286.53
  Q 422.34 285.70 422.75 286.53
  Q 424.49 290.13 423.64 293.28
  C 423.56 293.60 423.36 293.87 423.10 294.04
  Q 421.38 295.17 419.56 294.13
  Z"
/>
<path fill="#f88287" fill-opacity="0.988" d="
  M 482.21 316.75
  Q 481.13 315.09 480.25 310.75
  Q 479.49 306.99 477.74 302.62
  C 477.56 302.18 477.10 301.93 476.64 302.02
  Q 474.46 302.45 472.79 301.29
  Q 471.32 300.27 471.25 300.23
  Q 469.28 299.12 467.36 297.95
  Q 464.29 296.08 460.73 297.00
  C 459.85 297.23 459.26 298.08 459.30 299.03
  L 460.21 321.00
  Q 459.86 321.11 459.66 320.95
  Q 459.51 320.83 459.48 320.50
  Q 458.61 310.85 458.74 301.15
  Q 458.74 301.04 458.62 299.35
  Q 458.38 296.10 462.42 295.68
  Q 465.46 295.37 467.95 297.14
  Q 468.85 297.79 470.94 299.10
  Q 471.00 299.14 472.33 300.14
  Q 473.86 301.31 476.01 301.00
  Q 478.75 300.61 479.28 303.12
  L 482.21 316.75
  Z"
/>
<path fill="#f5636d" fill-opacity="0.984" d="
  M 509.46 305.75
  Q 509.05 305.50 508.76 305.13
  Q 508.51 304.82 508.46 304.30
  Q 508.25 301.78 508.04 299.25
  L 508.37 297.73
  Q 508.53 296.97 508.61 297.74
  L 509.46 305.75
  Z"
/>
<path fill="#fb4a4f" fill-opacity="0.992" d="
  M 420.25 303.04
  Q 422.61 302.71 424.79 303.47
  Q 425.65 303.77 426.25 303.68
  Q 426.99 303.56 427.71 303.25
  Q 427.65 303.76 427.32 304.12
  C 427.10 304.37 426.76 304.48 426.44 304.41
  L 420.25 303.04
  Z"
/>
<path fill="#ff0000" d="
  M 421.50 308.21
  Q 421.38 309.12 422.19 309.28
  Q 422.81 309.40 423.11 309.56
  Q 425.07 310.59 427.00 309.46
  Q 428.62 309.77 432.00 311.00
  Q 433.64 311.60 434.00 312.96
  L 430.56 311.56
  C 430.19 311.41 429.88 311.33 429.75 311.36
  Q 429.47 311.43 429.33 311.59
  Q 428.95 312.01 429.68 312.13
  Q 433.62 312.79 431.50 316.50
  Q 430.55 318.15 427.40 319.50
  C 427.04 319.65 426.78 319.87 426.68 320.10
  L 426.31 320.96
  C 426.19 321.25 425.94 321.44 425.69 321.43
  Q 408.84 321.34 392.00 321.75
  Q 386.11 321.89 383.00 322.79
  Q 377.39 323.88 374.56 328.63
  C 374.40 328.90 374.38 329.24 374.52 329.52
  L 375.00 330.50
  Q 373.60 331.08 375.09 331.62
  Q 385.90 335.57 397.25 337.54
  Q 402.54 339.55 408.25 339.54
  Q 409.86 340.36 411.00 340.50
  Q 419.21 341.48 427.09 343.96
  Q 428.89 344.52 430.61 345.53
  Q 433.15 347.00 433.94 347.56
  Q 437.44 350.05 437.63 354.04
  Q 437.84 358.34 437.86 358.46
  Q 438.40 361.56 439.14 364.63
  Q 439.20 364.86 439.33 364.94
  Q 439.50 365.05 439.71 365.00
  Q 441.36 377.98 439.06 388.56
  Q 436.69 399.46 427.66 407.90
  Q 416.58 418.25 403.55 425.89
  Q 395.66 430.52 393.65 432.58
  Q 389.36 436.98 387.56 443.27
  Q 385.93 448.95 383.36 454.23
  Q 381.62 457.81 379.26 460.12
  Q 376.62 462.73 373.47 464.53
  C 372.96 464.82 372.31 464.61 372.06 464.07
  Q 369.00 457.45 368.00 450.50
  Q 367.42 446.48 369.15 442.25
  Q 369.78 440.72 371.32 438.58
  Q 372.16 437.41 372.99 436.24
  Q 373.86 435.00 374.83 434.05
  Q 381.68 427.27 389.75 421.96
  Q 390.70 422.22 391.50 421.74
  Q 396.56 418.70 401.66 415.74
  Q 402.65 415.17 401.75 414.79
  L 402.00 414.71
  Q 403.05 414.68 404.75 413.50
  Q 410.70 409.35 412.10 408.24
  Q 412.11 408.23 412.58 407.97
  Q 412.98 407.74 412.46 407.25
  Q 416.90 403.57 418.44 400.69
  Q 425.14 388.11 424.75 371.75
  Q 424.43 358.17 411.92 355.14
  Q 397.60 351.68 383.00 349.71
  Q 383.46 349.20 382.78 349.18
  Q 382.54 349.18 382.35 349.10
  Q 378.81 347.73 375.00 347.79
  Q 373.41 347.37 370.19 345.81
  Q 360.10 340.93 359.36 330.84
  Q 358.94 325.19 360.13 321.21
  Q 361.61 316.24 366.57 313.31
  Q 369.21 311.75 371.61 311.21
  L 387.00 307.79
  Q 390.61 308.53 393.97 307.25
  Q 394.49 307.05 393.94 307.03
  L 392.50 306.96
  Q 407.08 305.38 421.50 308.21
  Z"
/>
<path fill="#fb4a4f" fill-opacity="0.992" d="
  M 392.50 306.96
  L 393.94 307.03
  Q 394.49 307.05 393.97 307.25
  Q 390.61 308.53 387.00 307.79
  L 392.50 306.96
  Z"
/>
<path fill="#fb4a4f" fill-opacity="0.992" d="
  M 421.50 308.21
  L 427.00 309.46
  Q 425.07 310.59 423.11 309.56
  Q 422.81 309.40 422.19 309.28
  Q 421.38 309.12 421.50 308.21
  Z"
/>
<path fill="#fb4a4f" fill-opacity="0.992" d="
  M 293.29 310.75
  Q 293.86 316.60 293.24 322.44
  Q 293.19 322.93 293.17 322.44
  L 292.79 315.50
  L 293.29 310.75
  Z"
/>
<path fill="#fe1e21" fill-opacity="0.996" d="
  M 434.00 312.96
  Q 434.92 317.54 430.81 320.56
  Q 427.06 323.32 423.06 323.11
  Q 421.02 323.00 420.93 323.00
  Q 412.34 322.99 403.75 322.79
  Q 394.37 322.57 385.00 323.04
  Q 383.95 323.13 383.00 322.79
  Q 386.11 321.89 392.00 321.75
  Q 408.84 321.34 425.69 321.43
  C 425.94 321.44 426.19 321.25 426.31 320.96
  L 426.68 320.10
  C 426.78 319.87 427.04 319.65 427.40 319.50
  Q 430.55 318.15 431.50 316.50
  Q 433.62 312.79 429.68 312.13
  Q 428.95 312.01 429.33 311.59
  Q 429.47 311.43 429.75 311.36
  C 429.88 311.33 430.19 311.41 430.56 311.56
  L 434.00 312.96
  Z"
/>
<path fill="#f5636d" fill-opacity="0.984" d="
  M 511.21 321.75
  Q 509.73 319.52 510.29 316.75
  Q 511.47 315.46 511.30 316.89
  Q 511.26 317.32 511.27 317.60
  Q 511.38 319.68 511.21 321.75
  Z"
/>
<path fill="#fb4a4f" fill-opacity="0.992" d="
  M 483.04 319.25
  Q 484.48 319.05 484.39 320.30
  Q 484.31 321.32 484.38 321.69
  Q 485.44 327.27 486.63 332.82
  Q 487.07 334.83 486.26 336.04
  Q 485.42 337.29 483.81 338.56
  Q 476.03 344.75 466.24 342.75
  C 465.38 342.57 464.66 341.99 464.32 341.19
  Q 462.06 336.03 461.09 330.48
  Q 461.03 330.17 461.46 330.25
  Q 462.89 334.19 463.00 335.00
  Q 463.56 338.98 466.43 341.61
  C 466.67 341.82 466.98 341.96 467.31 342.00
  Q 477.61 343.23 485.18 336.31
  C 485.88 335.67 486.19 334.71 486.00 333.77
  L 483.04 319.25
  Z"
/>
<path fill="#e3475d" fill-opacity="0.976" d="
  M 383.00 322.79
  Q 383.95 323.13 385.00 323.04
  Q 381.27 323.96 377.96 325.94
  Q 375.38 327.48 375.00 330.50
  L 374.52 329.52
  C 374.38 329.24 374.40 328.90 374.56 328.63
  Q 377.39 323.88 383.00 322.79
  Z"
/>
<path fill="#f88287" fill-opacity="0.988" d="
  M 375.00 330.50
  Q 380.41 333.31 385.50 334.25
  Q 393.63 335.76 398.75 337.21
  L 397.25 337.54
  Q 385.90 335.57 375.09 331.62
  Q 373.60 331.08 375.00 330.50
  Z"
/>
<path fill="#fb4a4f" fill-opacity="0.992" d="
  M 398.75 337.21
  L 409.50 339.21
  Q 408.79 339.14 408.25 339.54
  Q 402.54 339.55 397.25 337.54
  L 398.75 337.21
  Z"
/>
<path fill="#c77175" fill-opacity="0.969" d="
  M 513.21 345.50
  Q 512.21 344.83 512.29 343.50
  Q 512.77 340.72 512.50 339.25
  Q 512.31 338.22 512.75 337.80
  Q 513.20 337.36 513.20 338.06
  L 513.21 345.50
  Z"
/>
<path fill="#f88287" fill-opacity="0.988" d="
  M 447.29 338.00
  Q 447.64 337.89 447.84 338.05
  Q 448.00 338.17 448.01 338.50
  Q 448.27 346.74 448.25 354.44
  C 448.25 355.16 448.66 355.79 449.28 356.01
  L 453.00 357.29
  Q 453.15 357.64 453.50 357.79
  Q 450.05 358.34 447.67 356.05
  C 447.44 355.83 447.30 355.52 447.28 355.19
  Q 446.65 346.60 447.29 338.00
  Z"
/>
<path fill="#f88287" fill-opacity="0.988" d="
  M 409.50 339.21
  Q 417.77 340.31 425.76 342.72
  Q 430.02 344.01 434.94 347.31
  Q 437.91 349.31 438.11 352.43
  Q 438.32 355.96 438.34 356.04
  Q 439.16 360.50 439.71 365.00
  Q 439.50 365.05 439.33 364.94
  Q 439.20 364.86 439.14 364.63
  Q 438.40 361.56 437.86 358.46
  Q 437.84 358.34 437.63 354.04
  Q 437.44 350.05 433.94 347.56
  Q 433.15 347.00 430.61 345.53
  Q 428.89 344.52 427.09 343.96
  Q 419.21 341.48 411.00 340.50
  Q 409.86 340.36 408.25 339.54
  Q 408.79 339.14 409.50 339.21
  Z"
/>
<path fill="#c77175" fill-opacity="0.969" d="
  M 375.00 347.79
  Q 378.81 347.73 382.35 349.10
  Q 382.54 349.18 382.78 349.18
  Q 383.46 349.20 383.00 349.71
  Q 378.84 349.41 375.00 347.79
  Z"
/>
<path fill="#e3475d" fill-opacity="0.976" d="
  M 464.75 353.79
  Q 459.85 357.73 453.50 357.79
  Q 453.15 357.64 453.00 357.29
  Q 459.14 356.47 464.75 353.79
  Z"
/>
<path fill="#c77175" fill-opacity="0.969" d="
  M 500.04 381.75
  Q 501.21 385.13 500.71 388.75
  Q 500.34 387.98 500.14 388.61
  Q 500.05 388.90 499.96 388.62
  Q 498.94 385.20 500.04 381.75
  Z"
/>
<path fill="#c77175" fill-opacity="0.969" d="
  M 412.46 407.25
  Q 412.98 407.74 412.58 407.97
  Q 412.11 408.23 412.10 408.24
  Q 410.70 409.35 404.75 413.50
  Q 403.05 414.68 402.00 414.71
  L 412.46 407.25
  Z"
/>
<path fill="#f5636d" fill-opacity="0.984" d="
  M 485.79 412.25
  Q 487.62 422.80 486.37 433.45
  Q 486.29 434.12 486.18 433.46
  L 485.79 431.25
  L 485.79 412.25
  Z"
/>
<path fill="#e3475d" fill-opacity="0.976" d="
  M 401.75 414.79
  Q 402.65 415.17 401.66 415.74
  Q 396.56 418.70 391.50 421.74
  Q 390.70 422.22 389.75 421.96
  L 401.75 414.79
  Z"
/>
<path fill="#e3475d" fill-opacity="0.976" d="
  M 511.29 432.25
  Q 511.91 435.91 511.06 439.51
  Q 510.41 442.27 510.50 438.75
  Q 510.53 437.53 510.29 437.00
  L 511.29 432.25
  Z"
/>
<path fill="#f5636d" fill-opacity="0.984" d="
  M 500.71 438.00
  Q 499.92 450.31 494.79 461.50
  Q 495.00 459.46 495.67 457.55
  Q 496.79 454.34 496.94 453.74
  Q 498.94 445.90 500.71 438.00
  Z"
/>
<path fill="#f88287" fill-opacity="0.988" d="
  M 288.75 443.54
  Q 288.76 443.92 288.50 444.21
  Q 286.66 443.31 284.82 442.43
  Q 284.77 442.40 282.92 441.28
  Q 280.60 439.87 279.31 442.56
  Q 277.12 447.16 276.20 452.19
  Q 276.00 453.31 275.04 453.25
  Q 276.09 448.08 278.31 443.35
  Q 279.20 441.43 280.43 440.79
  Q 282.26 439.83 284.15 441.01
  Q 286.06 442.20 286.39 442.35
  Q 287.59 442.91 288.75 443.54
  Z"
/>
<path fill="#e3475d" fill-opacity="0.976" d="
  M 528.46 445.75
  L 527.79 447.75
  Q 527.15 445.26 527.79 442.58
  Q 527.92 442.04 528.00 442.61
  L 528.46 445.75
  Z"
/>
<path fill="#e1e3de" fill-opacity="0.980" d="
  M 288.75 443.54
  L 292.38 447.16
  C 292.58 447.36 292.69 447.68 292.69 448.05
  L 292.75 472.14
  Q 292.75 474.36 294.95 474.15
  Q 298.27 473.83 301.84 474.86
  Q 305.96 476.05 310.25 476.29
  Q 307.79 476.99 303.69 476.06
  Q 299.28 475.07 294.31 474.99
  Q 292.32 474.96 292.20 472.98
  Q 291.54 462.15 291.93 450.65
  Q 292.00 448.40 291.16 447.03
  Q 290.15 445.38 288.50 444.21
  Q 288.76 443.92 288.75 443.54
  Z"
/>
<path fill="#f5636d" fill-opacity="0.984" d="
  M 527.21 455.00
  L 525.21 465.25
  Q 524.80 463.61 525.44 460.94
  Q 526.26 457.51 526.53 454.00
  Q 526.64 452.52 527.21 455.00
  Z"
/>
<path fill="#fb4a4f" fill-opacity="0.992" d="
  M 369.81 479.56
  Q 377.53 479.46 385.24 479.73
  Q 386.87 479.79 384.25 479.82
  Q 377.02 479.89 369.81 479.58
  Q 369.30 479.56 369.81 479.56
  Z"
/>
<path fill="#ff0000" d="
  M 515.75 538.04
  Q 513.04 538.27 514.51 538.41
  Q 519.88 538.92 525.27 539.05
  Q 525.71 539.06 526.04 539.27
  Q 526.39 539.49 526.71 539.75
  Q 526.73 541.14 526.41 542.47
  Q 526.00 544.12 525.99 545.11
  Q 525.89 557.53 525.83 569.96
  Q 525.83 570.02 526.02 579.91
  Q 526.12 585.21 525.71 590.50
  Q 524.95 595.51 524.50 605.25
  Q 524.27 610.31 522.74 617.85
  Q 522.63 618.38 522.61 620.17
  Q 522.60 621.45 521.97 622.52
  C 521.82 622.78 521.52 622.94 521.19 622.94
  L 483.75 623.29
  L 475.00 623.71
  Q 449.38 623.34 423.75 623.27
  Q 413.69 623.24 403.77 622.86
  Q 383.01 622.08 362.24 621.46
  Q 335.50 620.65 308.75 621.16
  Q 295.62 621.41 283.06 620.78
  C 282.08 620.73 281.32 619.93 281.31 618.95
  Q 281.24 605.91 280.08 592.93
  Q 279.61 587.65 279.23 581.05
  Q 278.88 575.10 278.23 569.17
  Q 277.47 562.27 277.76 557.29
  Q 278.16 550.46 279.03 543.67
  Q 279.05 543.53 279.12 540.32
  Q 279.20 536.64 283.17 536.88
  Q 285.18 537.00 285.34 536.99
  Q 301.67 536.91 318.00 536.45
  Q 345.50 535.69 373.00 535.71
  Q 383.11 535.72 392.99 535.53
  Q 429.00 534.81 465.00 535.33
  Q 472.73 535.44 484.97 536.25
  Q 495.35 536.94 505.75 537.22
  Q 510.77 537.36 515.75 538.04
  Z
  M 309.90 585.67
  Q 309.62 584.73 309.79 583.52
  Q 310.07 581.52 310.07 581.45
  Q 311.46 561.41 311.00 556.25
  Q 310.42 549.75 309.19 547.81
  Q 307.28 544.82 304.50 544.75
  Q 294.91 544.51 291.39 551.81
  Q 290.00 554.71 289.98 560.43
  Q 289.91 580.22 290.25 600.02
  C 290.26 600.67 290.72 601.22 291.36 601.35
  Q 304.42 603.95 317.76 601.83
  Q 326.44 600.45 335.04 598.67
  Q 339.26 597.81 341.52 598.26
  Q 345.05 598.97 347.44 601.56
  Q 352.69 607.26 360.14 606.30
  Q 362.29 606.02 362.93 603.95
  Q 366.95 591.11 368.35 577.73
  Q 369.05 571.00 368.60 564.24
  Q 368.17 557.72 364.88 552.09
  Q 361.72 546.71 355.50 545.97
  Q 351.43 545.49 350.25 549.00
  Q 349.10 552.42 349.10 557.00
  Q 349.09 569.38 348.77 581.03
  C 348.75 581.89 348.12 582.61 347.27 582.75
  Q 341.42 583.70 335.62 584.86
  Q 327.67 586.44 323.93 586.69
  Q 317.91 587.09 311.13 586.64
  C 310.56 586.60 310.07 586.22 309.90 585.67
  Z
  M 377.29 576.00
  Q 377.15 575.19 376.83 575.84
  Q 376.75 575.98 376.73 576.18
  Q 375.78 585.30 376.52 594.44
  C 376.54 594.67 376.72 594.94 377.00 595.17
  Q 377.35 595.46 377.46 596.00
  Q 378.54 603.51 384.00 607.00
  Q 385.96 608.25 388.36 607.61
  Q 390.39 607.07 391.46 605.04
  Q 392.81 602.51 392.81 599.50
  Q 392.82 593.71 393.83 587.53
  Q 394.14 585.60 396.10 585.48
  Q 413.49 584.44 430.60 584.74
  C 431.53 584.75 432.14 585.73 431.74 586.57
  Q 429.87 590.56 428.28 594.59
  Q 426.66 598.71 427.04 601.26
  Q 427.60 604.99 430.84 607.45
  C 431.11 607.65 431.43 607.76 431.75 607.75
  Q 436.03 607.69 439.16 604.65
  Q 445.46 598.54 447.50 590.00
  Q 449.28 582.54 449.65 578.05
  C 449.67 577.74 449.53 577.45 449.27 577.29
  Q 447.31 576.07 445.08 575.56
  Q 441.03 574.64 440.99 574.63
  Q 438.82 573.93 436.57 573.10
  Q 433.64 572.01 434.55 569.02
  Q 436.69 562.00 438.13 552.92
  C 438.26 552.14 437.79 551.39 437.04 551.16
  Q 430.99 549.30 425.07 548.74
  Q 422.77 548.52 412.93 548.29
  Q 401.33 548.02 389.75 548.79
  Q 384.09 549.17 378.67 550.79
  C 378.38 550.88 378.18 551.14 378.17 551.44
  L 377.29 576.00
  Z
  M 511.00 598.21
  Q 512.76 597.77 511.25 597.73
  Q 495.88 597.30 480.50 597.54
  Q 476.94 597.53 472.79 596.19
  Q 470.70 595.52 470.83 593.26
  L 472.48 565.18
  Q 472.63 562.74 474.99 562.50
  Q 480.97 561.89 486.97 561.97
  Q 489.57 562.00 489.96 562.28
  Q 491.12 563.11 490.27 566.22
  Q 489.69 568.36 491.30 569.88
  Q 493.42 571.88 496.71 573.53
  Q 499.39 574.87 499.78 574.98
  Q 501.77 575.54 503.31 573.81
  Q 506.77 569.93 507.60 563.98
  Q 508.20 559.62 508.82 554.65
  C 508.91 553.94 508.50 553.26 507.82 553.02
  Q 504.36 551.78 500.63 551.55
  Q 497.49 551.36 497.37 551.35
  Q 477.86 549.63 458.81 552.70
  C 458.01 552.83 457.39 553.44 457.25 554.24
  Q 452.96 579.06 456.55 604.34
  C 456.69 605.33 457.48 606.10 458.47 606.22
  Q 476.32 608.28 494.00 608.75
  Q 501.28 608.94 509.44 606.44
  Q 510.04 606.25 511.02 605.55
  Q 511.69 605.08 512.61 604.73
  Q 515.59 603.63 516.55 600.54
  C 516.65 600.23 516.51 599.91 516.25 599.83
  L 511.00 598.21
  Z
  M 311.29 563.81
  Q 311.21 566.56 311.25 569.57
  Q 311.31 572.89 311.47 569.57
  Q 311.63 566.44 311.36 563.80
  Q 311.31 563.27 311.29 563.81
  Z"
/>
<path fill="#e9a29e" fill-opacity="0.976" d="
  M 515.75 538.04
  Q 520.00 538.09 524.25 538.25
  Q 526.09 538.32 527.00 539.21
  Q 526.66 539.38 526.71 539.75
  Q 526.39 539.49 526.04 539.27
  Q 525.71 539.06 525.27 539.05
  Q 519.88 538.92 514.51 538.41
  Q 513.04 538.27 515.75 538.04
  Z"
/>
<path fill="#e1e3de" fill-opacity="0.980" d="
  M 527.00 539.21
  Q 527.74 540.51 527.45 541.83
  Q 526.98 543.99 526.98 544.27
  Q 526.59 564.62 526.73 584.98
  Q 526.75 587.39 526.52 589.49
  Q 526.27 591.75 525.96 594.00
  L 525.71 590.50
  Q 526.12 585.21 526.02 579.91
  Q 525.83 570.02 525.83 569.96
  Q 525.89 557.53 525.99 545.11
  Q 526.00 544.12 526.41 542.47
  Q 526.73 541.14 526.71 539.75
  Q 526.66 539.38 527.00 539.21
  Z"
/>
<path fill="#e9a29e" fill-opacity="0.976" d="
  M 407.25 559.21
  L 394.50 559.46
  Q 400.84 558.13 407.25 559.21
  Z"
/>
<path fill="#ff0000" d="
  M 394.50 559.46
  L 407.25 559.21
  L 417.93 559.30
  C 418.23 559.30 418.49 559.50 418.55 559.79
  Q 419.87 565.69 419.01 571.69
  C 418.97 572.00 418.76 572.26 418.47 572.36
  Q 416.86 572.89 415.19 572.71
  Q 412.87 572.47 412.79 572.47
  Q 403.29 572.20 394.21 571.77
  C 393.54 571.74 393.01 571.19 393.00 570.52
  Q 392.96 565.55 393.05 560.59
  Q 393.06 559.90 393.37 559.65
  Q 393.78 559.30 394.50 559.46
  Z"
/>
<path fill="#fe1e21" fill-opacity="0.996" d="
  M 311.36 563.80
  Q 311.63 566.44 311.47 569.57
  Q 311.31 572.89 311.25 569.57
  Q 311.21 566.56 311.29 563.81
  Q 311.31 563.27 311.36 563.80
  Z"
/>
<path fill="#e9a29e" fill-opacity="0.976" d="
  M 377.29 576.00
  Q 376.59 586.01 377.46 596.00
  Q 377.35 595.46 377.00 595.17
  C 376.72 594.94 376.54 594.67 376.52 594.44
  Q 375.78 585.30 376.73 576.18
  Q 376.75 575.98 376.83 575.84
  Q 377.15 575.19 377.29 576.00
  Z"
/>
<path fill="#e1e3de" fill-opacity="0.980" d="
  M 525.71 590.50
  L 525.96 594.00
  Q 526.10 604.32 524.38 614.48
  Q 523.74 618.22 523.52 621.74
  Q 523.38 623.95 521.21 623.94
  L 483.50 623.71
  L 483.75 623.29
  L 521.19 622.94
  C 521.52 622.94 521.82 622.78 521.97 622.52
  Q 522.60 621.45 522.61 620.17
  Q 522.63 618.38 522.74 617.85
  Q 524.27 610.31 524.50 605.25
  Q 524.95 595.51 525.71 590.50
  Z"
/>
<path fill="#c77175" fill-opacity="0.969" d="
  M 480.50 597.54
  Q 495.88 597.30 511.25 597.73
  Q 512.76 597.77 511.00 598.21
  L 480.50 597.54
  Z"
/>
<path fill="#e9a29e" fill-opacity="0.976" d="
  M 483.75 623.29
  L 483.50 623.71
  L 475.00 623.71
  L 483.75 623.29
  Z"
/>
</svg>
